<svg xmlns="http://www.w3.org/2000/svg" fill="none" viewBox="0 0 471 297"><path fill="#d946ef" d="M469.744 167.104a5.91 5.91 0 0 0-5.041-2.891l-76.646-.672c-7.276-.067-14.546-.13-21.828-.198-3.052-.026-5.974 2.709-5.833 5.834.141 3.182 2.568 5.807 5.833 5.833 24.022.214 48.047.422 72.083.636-21.588 12.401-44.292 22.817-67.807 31.005-27.693 9.641-56.489 16.443-85.614 19.869-27.35 3.219-56.355 4.302-83.208.448-25.323-3.641-50.698-11.739-70.14-28.26-19.776-16.803-31.416-40.151-36.922-65.271a157.819 157.819 0 0 1-2.958-18.917c3.74-.781 7.463-1.635 11.172-2.547 15.546-3.854 30.948-8.812 45.64-15.213 11.713-5.104 23.156-11.922 32.093-21.162 8.88-9.16 15.12-21.306 14.364-34.343-.792-13.637-8.781-25.386-19.88-32.96-11.432-7.801-25.563-10.04-38.973-6.968-13.412 3.068-25.631 11.302-34.484 21.697-19.006 22.318-23.438 53.5-22.235 81.995a304.377 304.377 0 0 1-50.839 4.609c-7.567.047-15.14-.198-22.688-.698C2.687 108.712 0 111.759 0 114.764c0 3.328 2.677 5.614 5.833 5.833 24.823 1.662 49.85.318 74.386-3.901 2.526 24.713 10.015 49.36 24.453 69.708 16.531 23.297 40.896 38.427 68.088 46.323 27.317 7.932 56.323 9.125 84.584 7.745a416.538 416.538 0 0 0 92.531-15.11c29.978-8.458 59.073-20.292 86.416-35.208a400.806 400.806 0 0 0 11.416-6.484c-6.614 9.401-13.047 18.937-19.234 28.625a768.785 768.785 0 0 0-27.974 47.527 770.67 770.67 0 0 0-14.156 27.494c-1.343 2.735-.833 6.443 2.089 7.98 2.625 1.39 6.552.833 7.979-2.089a767.814 767.814 0 0 1 25.912-48.443 767.635 767.635 0 0 1 29.448-46.625 754.282 754.282 0 0 1 17.964-25.183c1.203-1.625.964-4.239 0-5.89l.009.038ZM90.891 95.24c.177-14.167 1.828-28.292 6.562-41.719 4.36-12.38 11.433-23.234 21.735-31.297 9.167-7.177 20.812-11.573 32.62-10.49 4.844.448 10.536 2.443 15.224 5.271 2.714 1.636 4.172 2.735 6.349 4.797 2.182 2.063 3.714 3.865 5.083 5.948 3.037 4.63 4.698 9.396 4.844 14.459a36.85 36.85 0 0 1-.109 4 65.71 65.71 0 0 1-.105.984c0 .047-.02.089-.026.156-.14.787-.291 1.558-.468 2.334a33.996 33.996 0 0 1-1.188 3.958c-.531 1.464-.489 1.38-1.286 2.937-5.125 10.11-14.063 17.334-23.912 23.178-11.797 7-23.792 11.255-37.016 15.473a307.429 307.429 0 0 1-28.235 7.531 189.271 189.271 0 0 1-.062-7.51l-.01-.01Z"/></svg>