<svg xmlns="http://www.w3.org/2000/svg" fill="none" viewBox="0 0 679 605"><path fill="#000" d="M229.973 240.373a122.519 122.519 0 0 1 7.443-16.374c8-14.599 19.213-27.776 33.027-35.855 14.114-8.25 30.802-11.177 49.354-4.927a76.637 76.637 0 0 1 9.448 3.922c12.943-14.574 30.823-23.834 49.282-26.667 9.781-1.505 19.734-1.208 29.234 1.047 9.547 2.266 18.615 6.531 26.584 12.943 12.485 10.067 22.115 25.36 26.307 46.516 9.792-1.578 20.806-1.256 32.953 2.088 5.761 1.558 11.422 3.708 16.902 6.386 15.693 7.666 29.854 19.688 40.01 34.421 10.219 14.823 16.391 32.416 16.016 51.136-.323 16.615-5.786 34.021-18.13 51.073 8.489 5.959 12.072 16.23 11.697 27.464-.198 6.063-1.557 12.381-3.906 18.407-2.354 6.01-5.713 11.771-9.917 16.697-8.734 10.256-21.041 16.922-35.578 15.083.969 4.99 1.234 9.917.859 14.683-.349 10.343-3.547 19.401-8.463 25.401-4.542 7.219-10.652 13.355-17.76 17.88-8.152 5.187-17.62 8.266-27.527 8.427-11.75.188-24.041-3.698-35.443-12.953-6.333 21.38-19.734 34.333-35.792 40.891-10.838 4.432-22.849 5.875-34.656 5.005-11.708-.87-23.281-4.047-33.338-8.875a82.124 82.124 0 0 1-4.271-2.203c-.052-.026-.089-.052-.136-.073l-.026-.01c-12.619-7.021-22.322-16.812-26.182-28.011-8.266 6.047-18.99 9.432-30.536 10.156-12.891.807-26.891-1.682-39.61-7.453-12.791-5.797-24.344-14.932-32.27-27.38-7.953-12.484-12.209-28.197-10.381-47.088-10.666-1.667-24.901-12.458-35.568-27.588-5.062-7.167-9.422-15.355-12.297-24.016-2.911-8.771-4.291-18.021-3.312-27.14 2.13-19.948 15.193-39.125 47.349-51.521-.948-3.521-1.469-7.266-1.495-11.25a46.829 46.829 0 0 1 .063-4.443c.474-7.891 2.885-16.027 7.667-23.235 4.781-7.203 11.895-13.453 21.74-17.546 8.239-3.422 18.38-5.328 30.65-4.99l.009-.028ZM74.48 527.44c8.49-9.036 6.818-17.251.323-23.396-6.307-5.974-16.65-10.365-27.328-12.297-10.578-1.906-21.292-1.38-28.459 2.453-8.385 4.479-11.526 14.448-2.192 31.932a4.52 4.52 0 0 1-.412 4.891c-7.245 9.37-8.14 18.53-5.349 26.469 1.818 5.203 5.203 9.979 9.432 14.052 4.318 4.156 9.495 7.531 14.787 9.833 9.073 3.959 18.255 4.803 23.448.896a4.54 4.54 0 0 1 6.349.886c.037.062.089.114.125.172 11.807 14.584 23.917 14.036 32.88 6.869 5.391-4.317 9.807-10.875 12.583-18.093 2.75-7.182 3.823-14.885 2.526-21.531-2.239-11.51-12.38-19.797-34.672-15.469-2.453.474-4.828-1.146-5.302-3.599-.297-1.542.235-3.047 1.271-4.083l-.01.015Zm6.573-29.943c7.99 7.568 11.422 17.036 6.286 27.402 21.552-1.058 31.984 9.817 34.735 23.978 1.62 8.339.359 17.798-2.964 26.443-3.312 8.625-8.713 16.563-15.406 21.927-12.136 9.708-28.027 11.26-43.246-5.563-7.875 3.547-18.614 2.427-28.806-2.015-6.235-2.724-12.334-6.709-17.432-11.61-5.188-4.989-9.386-10.963-11.709-17.598-3.494-9.98-2.776-21.255 5.026-32.631-10.729-21.792-5.166-35.005 7.22-41.615 9.046-4.828 21.9-5.614 34.306-3.375 12.307 2.214 24.38 7.443 31.984 14.636l.006.021Zm510.92 23.506c-5.141-10.381-1.703-19.839 6.286-27.402 7.604-7.192 19.678-12.422 31.984-14.636 12.407-2.239 25.26-1.458 34.307 3.375 12.38 6.61 17.932 19.823 7.219 41.615 7.802 11.375 8.526 22.636 5.026 32.631-2.328 6.635-6.511 12.604-11.709 17.598-5.104 4.901-11.197 8.886-17.431 11.61-10.178 4.442-20.918 5.562-28.807 2.015-15.219 16.823-31.109 15.271-43.245 5.563-6.693-5.365-12.11-13.302-15.407-21.927-3.323-8.661-4.578-18.12-2.964-26.459 2.75-14.161 13.177-25.036 34.735-23.978l.006-.005Zm12.531-20.844c-6.484 6.146-8.161 14.349.323 23.396a4.502 4.502 0 0 1 1.271 4.083 4.535 4.535 0 0 1-5.302 3.599c-22.287-4.328-32.432 3.958-34.672 15.469-1.292 6.636-.224 14.35 2.526 21.531 2.76 7.219 7.182 13.787 12.583 18.093 8.958 7.167 21.068 7.703 32.88-6.869.037-.063.089-.115.125-.172a4.542 4.542 0 0 1 6.349-.886c5.187 3.907 14.375 3.073 23.448-.896 5.286-2.312 10.453-5.687 14.787-9.833 4.229-4.068 7.614-8.849 9.432-14.052 2.776-7.937 1.88-17.099-5.349-26.469a4.52 4.52 0 0 1-.411-4.891c9.333-17.495 6.197-27.453-2.193-31.932-7.182-3.833-17.88-4.354-28.459-2.453-10.687 1.927-21.021 6.323-27.328 12.297l-.01-.015ZM91.997 41.425c-15.03 11.797-9.395 24.282-3.682 36.938 1.068 2.375 2.151 4.765 3.11 7.104a4.52 4.52 0 0 1-2.5 5.9 4.52 4.52 0 0 1-5.902-2.5c-.932-2.301-1.953-4.54-2.963-6.796-2.453-5.438-4.89-10.839-6.224-16.25-6.932-3.074-13.156-2.376-17.932.447-2.662 1.568-4.927 3.808-6.672 6.432-1.755 2.651-2.948 5.662-3.432 8.735-.969 6.047.76 12.432 6.224 16.874.968.797 1.62 1.98 1.666 3.334a4.508 4.508 0 0 1-4.343 4.692c-11.464.474-18.64 5.167-22.35 11.25-1.828 3.011-2.849 6.386-3.135 9.771-.297 3.433.15 6.834 1.219 9.834 1.802 5.026 5.411 8.958 10.302 9.953.349.052.698.135 1.031.276a4.53 4.53 0 0 1 2.578 5.859c-2.812 7.167-.036 13.489 5.51 17.984 3.985 3.224 9.344 5.589 15.235 6.781 5.922 1.209 12.333 1.209 18.328-.312 11.646-2.938 21.776-11.808 23.631-28.984.036-.375.125-.735.26-1.094a4.518 4.518 0 0 1 5.813-2.661c2.536.947 5.562.947 8.76.135 4.615-1.172 9.459-3.984 13.766-8.026 4.39-4.13 8.151-9.505 10.463-15.693 2.589-6.896 3.386-14.823 1.271-23.219a4.595 4.595 0 0 1-.151-1.495 4.532 4.532 0 0 1 4.838-4.208c7.157.51 11.724-3.172 13.948-8.589 1.657-4.02 2.167-8.984 1.594-14.052-.583-5.125-2.265-10.265-4.963-14.562-4.615-7.328-12.37-12.157-22.787-9.771a4.535 4.535 0 0 1-4.38-.995c-8.188-7.542-16.984-9.61-24.812-8.448-4.881.724-9.407 2.651-13.203 5.266l-.115.073v.017ZM109.93 154.68c-3.671 18.516-15.828 28.36-29.682 31.844-7.318 1.844-15.12 1.854-22.339.385-7.266-1.479-14-4.479-19.125-8.625-7.38-5.974-11.51-14.172-9.61-23.682-5.974-2.662-10.302-7.98-12.604-14.36-1.53-4.245-2.15-8.948-1.755-13.626.412-4.718 1.844-9.468 4.453-13.74 4.068-6.672 10.912-12.135 20.979-14.437-3.432-5.651-4.39-12.172-3.386-18.416a31.698 31.698 0 0 1 4.818-12.318c2.464-3.718 5.735-6.932 9.646-9.234 5.901-3.474 13.13-4.854 21.03-2.75.313-3.188 1.407-6.432 3.162-9.557 2.552-4.532 6.531-8.85 11.448-12.245 4.89-3.375 10.73-5.875 17.036-6.797 9.729-1.433 20.495.823 30.489 9.208 13.875-2.401 24.219 4.255 30.454 14.161 3.448 5.474 5.588 11.974 6.323 18.391.734 6.495.026 13.016-2.23 18.479-3.036 7.364-8.687 12.807-17.188 14.01 1.131 8.323 0 16.194-2.64 23.208a50.971 50.971 0 0 1-12.745 19.126c-5.412 5.104-11.672 8.687-17.771 10.229-2.984.76-5.948 1.021-8.786.76l.023-.014ZM537.663 28.404c1.942 5.063 3.745 9.323 5.922 12.708.224.26.422.563.583.886 1.13 1.63 2.364 3.036 3.76 4.229 4.594 3.906 11.511 5.849 23.282 5.9a4.521 4.521 0 0 1 4.505 4.542 4.522 4.522 0 0 1-4.542 4.506c-14.161-.063-22.833-2.714-29.093-8.026a29.287 29.287 0 0 1-3.672-3.745c-2.13 1.01-3.771 2.552-4.989 4.443-1.381 2.15-2.24 4.791-2.589 7.64-.375 3-.198 6.162.484 9.208 1.292 5.76 4.354 11.079 8.86 13.974.114.073.213.15.323.224 6.01 4.63 12.567 6.86 19.364 7.479 6.979.646 14.276-.375 21.552-2.214a4.498 4.498 0 0 1 4.104.745 4.539 4.539 0 0 1 .823 6.35c-2.089 2.713-3.521 6.244-4.105 10.093-.598 3.969-.276 8.213 1.183 12.208 1.442 3.969 4.031 7.729 7.953 10.75 4.021 3.099 9.495 5.453 16.661 6.531v.011c.62.099 1.245.323 1.802.698 3.834 2.515 8.099 3.088 12.219 2.328 4.083-.745 8.042-2.802 11.359-5.589 3.297-2.776 5.912-6.234 7.292-9.843 1.255-3.297 1.469-6.683.162-9.657h.01a4.499 4.499 0 0 1 1.146-5.203c6.146-5.463 8.474-10.765 8.427-15.478-.036-3.172-1.156-6.209-2.912-8.886-1.843-2.823-4.369-5.25-7.083-7.094-4.245-2.875-8.635-4.27-11.125-3.349a4.513 4.513 0 0 1-3.297-.072 4.533 4.533 0 0 1-2.453-5.922c2.849-6.844 2.552-13.552.136-19.49-1.73-4.245-4.495-8.099-7.938-11.375-3.51-3.323-7.755-6.062-12.359-7.979-8.162-3.396-17.334-4.13-25.402-.922-.312.136-.635.25-.984.323a4.555 4.555 0 0 1-5.339-3.557c-2.041-10.167-5.974-14.921-10.39-16.14-4.245-1.172-9.271.682-13.651 4.047-4.677 3.599-8.448 8.797-9.807 13.964-.073.276-.136.547-.188.823l.006-.069Zm-5.75 14.26c-3.844-5.063-4.417-11.224-2.813-17.36 1.865-7.104 6.87-14.115 13.031-18.855C548.6 1.47 556.481-1.155 563.719.85c6.62 1.829 12.422 7.344 15.656 18.167 9.099-2.292 18.818-1.12 27.516 2.5 5.563 2.313 10.74 5.662 15.083 9.781 4.406 4.167 7.938 9.1 10.141 14.522 2.5 6.161 3.333 12.916 1.854 19.912 3.76.635 7.828 2.328 11.547 4.854 3.656 2.474 7.068 5.776 9.609 9.646 2.625 4.02 4.308 8.687 4.37 13.749.073 6.484-2.516 13.437-9.245 20.235 1.12 4.416.62 9.036-1.047 13.426-1.927 5.052-5.489 9.834-9.942 13.579-4.443 3.734-9.855 6.484-15.542 7.531-5.974 1.109-12.198.339-17.921-3.109-8.339-1.38-14.921-4.318-19.937-8.188-5.375-4.13-8.922-9.323-10.928-14.822-2.005-5.49-2.453-11.261-1.64-16.64.26-1.782.672-3.511 1.208-5.188-5.166.787-10.328 1.057-15.416.584-8.364-.771-16.437-3.495-23.88-9.172-6.547-4.256-10.901-11.662-12.682-19.536-.922-4.084-1.156-8.313-.672-12.282.51-4.13 1.818-8.078 3.969-11.437 1.594-2.474 3.62-4.615 6.125-6.27l-.032-.028Zm7.166 427.507a2.265 2.265 0 0 1-.947-3.063c.026-.036.036-.073.062-.114.026-.053.052-.089.073-.136a2.26 2.26 0 0 1 3.125-.682l.833.536 44.312 23.344a2.27 2.27 0 0 1 1.209 2.005l.213 5.042c.037.484-.062.984-.349 1.417a2.26 2.26 0 0 1-3.125.682l-44.552-28.584-.859-.448.005.001Zm-11.958-3.896.01-.011a2.262 2.262 0 0 1 3.073.87l.448.797 29.683 43.907a2.28 2.28 0 0 1-.609 3.151 2.292 2.292 0 0 1-1.48.375l-5.005-.089a2.28 2.28 0 0 1-2.015-1.156l-24.364-43.693-.584-.86a2.28 2.28 0 0 1 .61-3.151c.073-.052.151-.099.234-.135l-.001-.005Zm-382.387-10.677a.367.367 0 0 1 .063.114 2.268 2.268 0 0 1-.948 3.063l-.859.448-44.552 28.584a2.257 2.257 0 0 1-3.126-.683 2.2 2.2 0 0 1-.348-1.416l.213-5.042c0-.807.438-1.604 1.208-2.005l44.312-23.344.834-.536a2.257 2.257 0 0 1 3.125.682c.026.052.052.088.073.135h.005Zm7.99.151a2.252 2.252 0 0 1 3.073-.87l.01.01c.073.037.162.089.235.136a2.277 2.277 0 0 1 .609 3.151l-.583.859-24.364 43.694a2.245 2.245 0 0 1-2.016 1.156l-5.005.088a2.26 2.26 0 0 1-1.479-.375 2.277 2.277 0 0 1-.61-3.151l29.683-43.906.448-.797-.001.005Zm66.875-262.414c-.063.063-.136.115-.214.172a2.256 2.256 0 0 1-3.151-.547l-.948-1.343-52.74-62.771a2.244 2.244 0 0 1-.672-1.417 2.264 2.264 0 0 1 2.068-2.453l8.125-.698a2.269 2.269 0 0 1 2.042.959l44.849 63.74.969 1.146a2.267 2.267 0 0 1-.276 3.187l-.052.036v-.011Zm-34.694-44.901-13.749-19.536-2.49.214 16.24 19.328-.001-.006Zm36.266 59.473a2.26 2.26 0 0 1 1.255 2.938c-.026.052-.037.099-.063.151-.026.052-.052.115-.073.161a2.246 2.246 0 0 1-3.036.995l-1.406-.708-72.303-28.921a2.289 2.289 0 0 1-1.396-1.766l-1.192-8.063a2.266 2.266 0 0 1 1.916-2.578 2.274 2.274 0 0 1 1.443.276l73.385 36.922 1.459.583.011.01Zm-72.724-29.093 22.14 8.859-22.511-11.323.359 2.464h.012Zm350.8-1.219a2.258 2.258 0 0 1-3.365.375l-.052-.036a2.259 2.259 0 0 1-.276-3.188l.969-1.145 44.849-63.74a2.279 2.279 0 0 1 2.042-.959l8.125.698c1.244.115 2.177 1.208 2.067 2.453a2.23 2.23 0 0 1-.671 1.417l-52.74 62.771-.948 1.343v.011Zm45.073-64.062-13.749 19.536 16.24-19.328-2.49-.214-.001.006Zm-51.208 82.093c-.026-.052-.052-.099-.063-.151a2.265 2.265 0 0 1 1.256-2.937l1.458-.584 73.385-36.921a2.314 2.314 0 0 1 1.443-.276 2.277 2.277 0 0 1 1.917 2.578l-1.193 8.062a2.246 2.246 0 0 1-1.396 1.766l-72.302 28.921-1.407.709a2.262 2.262 0 0 1-3.036-.995c-.026-.052-.052-.115-.073-.161l.011-.011Zm51.781-23.323 22.14-8.859.36-2.464-22.511 11.323h.011Zm-264.6 75.115a4.511 4.511 0 0 1-4.479 4.552 4.511 4.511 0 0 1-4.552-4.479c-.036-4.443 2.839-9.568 7.552-14.197 3.922-3.844 9.235-7.532 15.193-10.266 6-2.75 12.709-4.552 19.412-4.604 8.511-.063 16.912 2.641 23.807 9.656a4.52 4.52 0 0 1-.052 6.396 4.52 4.52 0 0 1-6.396-.052c-4.963-5.063-11.078-7.021-17.286-6.969-5.339.037-10.792 1.531-15.73 3.797-4.979 2.276-9.385 5.339-12.604 8.5-3.036 2.974-4.88 5.776-4.865 7.677v-.011Zm-95.412 20.943c-2.177 4.208-3.698 8.25-4.656 12.093-.932 3.745-1.318 7.292-1.255 10.641.224 4.182 1.109 8.151 2.552 11.646h-.01c.036.088.072.172.099.26.161.474.234.948.25 1.417a35.248 35.248 0 0 0 1.791 3.573c4.281 7.469 10.875 13.016 17.334 16.391 2.661 1.395 5.312 2.401 7.765 3.01a4.527 4.527 0 0 1 3.297 5.49 4.526 4.526 0 0 1-5.489 3.297c-3.063-.761-6.386-2.042-9.745-3.797-7.828-4.084-15.818-10.829-21.022-19.902a50.03 50.03 0 0 1-1.182-2.203c-28.339 10.927-39.787 27.24-41.579 44.042-.833 7.791.36 15.745 2.886 23.36 2.562 7.729 6.51 15.109 11.125 21.65 10.875 15.407 24.803 25.834 32.005 23.844a4.543 4.543 0 0 1 1.969-.135 4.528 4.528 0 0 1 3.807 5.151c-2.885 18.917.808 34.307 8.375 46.167 6.907 10.848 17.074 18.854 28.375 23.978 11.375 5.167 23.855 7.391 35.317 6.672 11.823-.745 22.474-4.614 29.516-11.635-.536-12.433 4.292-24.912 8.662-36.214.349-.922.698-1.802 1.396-3.635a4.535 4.535 0 0 1 5.838-2.641 4.536 4.536 0 0 1 2.641 5.839c-.224.583-.823 2.14-1.432 3.708-7.829 20.224-17.35 44.864 15.182 63.64a87.829 87.829 0 0 0 3.834 1.979c9.047 4.344 19.473 7.203 30.078 7.99 10.505.786 21.12-.485 30.615-4.37 15.193-6.198 27.615-19.265 32.167-41.625a4.504 4.504 0 0 1 1.281-2.516 4.524 4.524 0 0 1 6.396.01c11.036 11.152 23.234 15.719 34.656 15.542 8.187-.125 16.026-2.688 22.812-7.005a48.64 48.64 0 0 0 14.984-15.11c.088-.161.187-.312.286-.458.438-.698.844-1.417 1.235-2.141 3.151-5.776 5.125-12.271 5.572-19.125a50.117 50.117 0 0 0-.822-9.63c-1.928-10.677-7.417-22.126-17.86-32.156a4.523 4.523 0 1 1 6.27-6.521c8.079 7.755 13.563 16.302 16.974 24.849 13.192 3.656 24.478-1.891 32.27-11.026 3.521-4.13 6.36-9.01 8.349-14.125 1.99-5.104 3.151-10.401 3.313-15.396.323-9.557-2.974-18.021-10.927-21.505a4.207 4.207 0 0 1-1.292-.724 4.534 4.534 0 0 1-.724-6.36c13.276-16.713 19.079-33.76 19.391-49.838.338-16.698-5.229-32.479-14.421-45.823-9.261-13.437-22.188-24.401-36.527-31.412-15.541-7.589-32.693-10.49-48.484-6.745-.125.026-.25.052-.375.073a5.897 5.897 0 0 1-.787.052c-1.046.26-2.078.547-3.099.859-16.473 5.026-28.136 15.99-34.36 23.834a4.532 4.532 0 0 1-6.359.724 4.534 4.534 0 0 1-.724-6.36c6.995-8.812 20.136-21.14 38.828-26.844l.636-.187c-3.735-19.027-12.198-32.656-23.136-41.479-6.844-5.526-14.698-9.198-22.995-11.177-8.349-1.979-17.136-2.239-25.797-.906-17.432 2.687-34.287 11.771-45.88 26.093a4.522 4.522 0 0 1-5.797 1.255c-3.87-2.114-7.615-3.77-11.25-4.989-15.782-5.313-29.943-2.849-41.902 4.156-12.27 7.182-22.364 19.115-29.656 32.416a113.224 113.224 0 0 0-7.89 17.932 4.538 4.538 0 0 1-4.615 3.271c-12.359-.734-22.276.922-30.068 4.167-8.052 3.349-13.812 8.385-17.656 14.188l-.286.437-.07.019Z"/></svg>